<svg version="1.0" xmlns="http://www.w3.org/2000/svg"
 width="512.000000pt" height="512.000000pt" viewBox="0 0 512.000000 512.000000"
 preserveAspectRatio="xMidYMid meet">

<g transform="translate(0.000000,512.000000) scale(0.100000,-0.100000)"
fill="#000000" stroke="none">
<path d="M1322 4709 c-75 -30 -162 -113 -198 -191 -26 -56 -29 -74 -29 -158 0
-82 4 -103 26 -151 45 -95 125 -170 331 -310 56 -38 100 -69 97 -69 -2 0 -128
50 -279 110 -151 61 -285 110 -298 110 -57 0 -92 -84 -54 -128 10 -13 158 -77
362 -159 l345 -138 -592 -5 c-577 -5 -592 -5 -620 -26 -15 -11 -38 -40 -50
-64 l-23 -44 0 -751 c0 -819 -2 -783 56 -805 28 -11 71 2 90 28 11 14 13 166
14 760 l0 742 1545 0 1545 0 0 -738 c0 -660 2 -740 16 -760 22 -32 57 -43 92
-31 37 13 51 40 54 109 l3 55 485 0 c267 0 501 -3 521 -8 54 -11 126 -64 154
-111 14 -24 25 -48 25 -54 0 -9 -40 -12 -138 -12 -185 0 -182 3 -182 -176 0
-120 2 -134 26 -182 47 -94 133 -142 256 -142 l58 0 0 -175 0 -175 -105 0
-105 0 -14 35 c-38 90 -137 197 -226 244 -149 79 -332 79 -482 -1 -73 -39
-176 -146 -213 -222 -19 -38 -33 -56 -46 -56 -18 0 -19 13 -19 315 l0 316 -25
24 c-29 30 -74 32 -106 6 l-24 -19 -3 -321 -3 -321 -829 0 -829 0 -37 70 c-84
160 -265 270 -443 270 -186 0 -367 -109 -451 -273 l-35 -67 -232 0 -233 0 0
90 0 90 190 0 c189 0 191 0 215 25 33 32 33 78 0 110 l-24 25 -416 0 -416 0
-24 -25 c-33 -32 -33 -78 0 -110 23 -24 28 -25 170 -25 l145 0 0 -103 c0 -126
21 -178 85 -214 38 -22 50 -23 276 -23 l235 0 11 -75 c13 -92 63 -201 124
-269 164 -185 453 -222 658 -85 130 87 200 207 226 392 l6 37 898 0 897 0 12
-77 c31 -194 168 -357 349 -413 88 -27 218 -27 305 0 182 56 320 219 350 413
l12 77 143 0 c139 0 145 1 168 25 l25 24 0 468 c0 364 -3 479 -14 519 -39 148
-159 269 -299 304 l-45 12 -65 261 -65 260 30 29 30 28 -4 103 c-3 76 -9 114
-25 149 -30 66 -95 133 -162 165 l-56 28 -347 3 -346 3 -4 119 c-3 128 -11
149 -72 194 -27 21 -41 21 -618 26 l-591 5 345 138 c190 76 354 147 364 158
39 43 3 129 -55 129 -14 0 -127 -41 -251 -91 -124 -50 -246 -99 -272 -110 -27
-10 -48 -17 -48 -15 0 2 33 25 73 51 189 126 312 239 348 319 83 190 4 408
-179 494 -50 24 -69 27 -162 27 -101 0 -108 -1 -168 -34 -35 -19 -82 -56 -105
-81 -68 -76 -160 -278 -263 -576 l-47 -136 -52 149 c-152 436 -236 583 -375
651 -76 37 -218 43 -298 11z m260 -174 c53 -38 106 -134 187 -340 64 -165 135
-374 129 -380 -6 -6 -201 113 -351 214 -169 114 -260 197 -283 256 -38 101 3
213 96 263 38 20 56 23 112 20 55 -3 75 -9 110 -33z m1146 16 c74 -38 115
-107 115 -192 0 -105 -64 -175 -308 -339 -138 -93 -336 -213 -341 -207 -11 11
164 483 223 600 30 60 89 126 128 143 46 20 139 17 183 -5z m1695 -1445 c57
-24 107 -93 107 -147 0 -18 -11 -19 -390 -19 l-390 0 0 90 0 90 320 0 c250 0
328 -3 353 -14z m104 -571 c34 -132 62 -248 62 -257 1 -17 -25 -18 -419 -18
l-420 0 0 260 0 260 358 -2 357 -3 62 -240z m433 -875 l0 -90 -61 0 c-54 0
-64 3 -90 29 -26 26 -29 36 -29 90 l0 61 90 0 90 0 0 -90z m-3365 -454 c221
-101 266 -406 84 -570 -73 -66 -143 -89 -249 -84 -107 6 -166 33 -238 113
-207 226 -32 589 275 571 49 -3 91 -13 128 -30z m2821 0 c169 -78 247 -284
170 -454 -97 -213 -373 -270 -547 -114 -131 117 -152 305 -51 451 95 139 273
188 428 117z"/>
<path d="M1394 1049 c-42 -12 -100 -77 -108 -122 -14 -73 24 -150 88 -181 111
-53 236 26 236 149 0 66 -29 112 -90 143 -47 23 -75 26 -126 11z"/>
<path d="M4200 1038 c-24 -13 -52 -35 -63 -49 -39 -54 -39 -136 1 -196 21 -34
84 -63 132 -63 177 0 227 238 66 311 -54 24 -83 24 -136 -3z"/>
<path d="M886 2919 l-26 -20 0 -380 c0 -366 1 -380 20 -399 21 -21 69 -26 100
-10 30 16 40 66 40 201 l0 129 104 0 c101 0 105 1 125 26 21 27 26 59 15 89
-12 31 -59 45 -154 45 l-90 0 0 90 0 90 143 0 c148 1 163 4 185 47 18 34 14
52 -17 84 l-29 29 -195 0 c-181 0 -196 -1 -221 -21z"/>
<path d="M1483 2916 l-28 -24 0 -377 0 -377 24 -19 c31 -25 85 -25 111 1 17
17 20 33 20 125 l0 105 70 0 69 0 83 -122 c80 -119 84 -123 122 -126 29 -3 44
2 62 19 39 36 31 69 -40 176 l-65 96 49 54 c112 122 108 287 -9 403 -77 77
-122 90 -302 90 -131 0 -139 -1 -166 -24z m326 -154 c95 -51 92 -185 -4 -232
-34 -17 -58 -20 -117 -18 l-73 3 -3 133 -3 132 83 0 c62 0 92 -5 117 -18z"/>
<path d="M2165 2915 l-25 -24 0 -374 0 -374 23 -21 c22 -21 32 -22 229 -22
l207 0 20 26 c28 35 26 67 -3 101 -24 28 -24 28 -170 31 l-146 4 0 89 0 89
103 0 c95 0 105 2 125 23 27 29 28 77 3 108 -18 22 -28 24 -125 27 l-106 4 0
89 0 89 145 0 c142 0 147 1 170 25 16 15 25 36 25 55 0 19 -9 40 -25 55 -24
25 -25 25 -225 25 -200 0 -201 0 -225 -25z"/>
<path d="M2766 2919 l-26 -20 0 -380 c0 -366 1 -380 20 -399 19 -19 33 -20
229 -20 l210 0 20 26 c28 35 26 67 -3 101 -24 28 -24 28 -170 31 l-146 4 0 89
0 89 59 0 c69 0 98 18 107 67 5 27 1 37 -24 63 -27 26 -37 30 -86 30 l-56 0 0
90 0 90 141 0 c77 0 148 4 158 10 30 15 46 65 32 99 -20 46 -45 51 -250 51
-175 0 -190 -1 -215 -21z"/>
<path d="M195 1715 c-33 -33 -32 -70 4 -106 l29 -29 537 0 537 0 29 29 c16 16
29 37 29 46 0 24 -27 72 -45 79 -9 3 -259 6 -556 6 l-540 0 -24 -25z"/>
<path d="M2083 1380 c-12 -10 -24 -29 -28 -40 -10 -30 12 -75 41 -89 18 -8
205 -11 645 -11 l620 0 24 25 c16 15 25 36 25 55 0 19 -9 40 -25 55 l-24 25
-629 0 c-611 0 -629 -1 -649 -20z"/>
</g>
</svg>
