<svg width="28" height="28" viewBox="0 0 28 28" fill="none" xmlns="http://www.w3.org/2000/svg">
<path d="M10.6745 9.13636C10.5107 8.59054 10.4288 8.31763 10.397 8.09973C10.158 6.46213 11.2903 4.94031 12.9275 4.69866C13.1454 4.6665 13.4303 4.6665 14.0002 4.6665V4.6665C14.57 4.6665 14.8549 4.6665 15.0728 4.69866C16.71 4.94031 17.8423 6.46213 17.6033 8.09973C17.5715 8.31763 17.4896 8.59054 17.3259 9.13636L15.5021 15.2157C15.3859 15.6029 15.3278 15.7965 15.216 15.9422C15.1031 16.0892 14.9515 16.202 14.7782 16.2679C14.6065 16.3332 14.4044 16.3332 14.0002 16.3332V16.3332C13.5959 16.3332 13.3938 16.3332 13.2221 16.2679C13.0488 16.202 12.8973 16.0892 12.7844 15.9422C12.6725 15.7965 12.6144 15.6029 12.4983 15.2157L10.6745 9.13636Z" stroke="#777777" stroke-width="2"/>
<circle cx="13.9998" cy="22.1668" r="2.33333" stroke="#777777" stroke-width="2"/>
</svg>
