<?xml version="1.0" encoding="UTF-8"?>
<svg xmlns="http://www.w3.org/2000/svg" viewBox="4 20 393.77 393.77">
  <defs>
    <style>.cls-1{fill:#0064FF;stroke-width:0px;}</style>
  </defs>
  <path class="cls-1"
        d="m328.35,128.03c-5.03-12.56-18.67-19.76-31.86-16.77-1.3.29-2.55.67-3.76,1.12-6.96,2.62-14.73,1.95-21.36-1.4l-77.52-39.15c-4.21-2.13-7.24-5.94-8.68-10.44-1.26-3.94-3.66-7.79-7.41-11.18-2.3-2.09-5.15-3.52-8.2-4.1-19.61-3.75-32.56,13.53-27.4,29.21l.02.07c1.56,4.72,1.18,9.87-1.06,14.31l-47.45,93.96c-1.26,2.5-3.52,4.31-6.19,5.17-4.22,1.36-8.32,4.14-11.78,8.63-.81,1.05-1.4,2.25-1.75,3.53-5.28,19.34,11.39,32.48,26.46,27.52.74-.24,1.45-.52,2.14-.84,2.85-1.3,6.16-1.11,8.96.3l106.05,53.56c1.21.61,2.08,1.69,2.5,2.98,0,0,0,.01,0,.02,3.1,9.42,13.47,14.4,22.83,10.77,8.19-3.18,12.78-12.26,10.47-20.74-2.63-9.69-12.8-15.08-22.22-11.98-.27.09-.54.19-.8.29-1.27.5-2.7.39-3.92-.23l-107.39-54.24c-2.53-1.28-4.44-3.5-5.33-6.19v-.04c-.25-.72-.52-1.42-.83-2.1-1.26-2.79-1.08-6.02.3-8.75l46.57-92.21c2.24-4.44,6.16-7.8,10.88-9.35l.07-.02.07-.02c4.72-1.56,9.87-1.18,14.31,1.06l76.87,38.83c6.64,3.35,11.8,9.22,13.82,16.38.35,1.24.79,2.48,1.33,3.7,5.44,12.39,19.34,19.09,32.43,15.67,16.26-4.25,25.07-21.71,18.82-37.32Z"/>
  <path class="cls-1"
        d="m317.28,216.6c-5.38-1.46-10.19-1.17-14.26.27-3.43,1.22-7.22.86-10.47-.78l-99.68-50.34c-1.21-.61-2.08-1.7-2.5-2.98,0,0,0-.01,0-.02-3.1-9.42-13.47-14.4-22.83-10.77-8.19,3.18-12.78,12.26-10.47,20.74,2.63,9.69,12.8,15.08,22.22,11.98.27-.09.53-.18.79-.29,1.27-.5,2.7-.39,3.92.22,27.11,13.69,76.18,38.47,76.86,38.81l22.12,11.17c3.41,1.72,6,4.74,7.19,8.37l.02.05s.03.08.04.12c1.2,3.57,1.04,7.45-.66,10.81l-46.83,92.72c-1.77,3.5-5.01,5.96-8.79,6.99-.38.1-.75.22-1.13.34s-.75.26-1.11.4c-3.66,1.42-7.72,1.36-11.22-.41-21.76-10.99-54.08-27.31-78.89-39.84-6.61-3.34-11.75-9.15-13.8-16.27-1.19-4.1-3.36-8.14-6.68-11.84-4.31-4.81-10.38-7.77-16.82-8.25-26.14-1.97-40.79,27.03-23.7,46.9,4.23,4.92,10.25,8.05,16.71,8.65,5.04.47,9.65-.21,13.7-1.76,6.99-2.67,14.81-2.02,21.49,1.35l78.79,39.79c3.39,1.71,5.76,4.85,6.73,8.52,1.26,4.75,4.14,9.41,8.99,13.37,1.56,1.27,3.38,2.18,5.33,2.66,20.51,5.05,34.31-12.75,29.01-28.86-.12-.38-.26-.75-.4-1.11-1.42-3.66-1.36-7.72.41-11.22l46.75-92.56c1.72-3.41,4.73-5.99,8.36-7.18l.05-.02c14.66-4.82,20.37-24.33,6.16-36.83-1.55-1.37-3.4-2.38-5.4-2.92Z"/>
</svg>
