<svg width="72" height="72" viewBox="0 0 72 72" fill="none" xmlns="http://www.w3.org/2000/svg">
<rect x="0.5" y="0.5" width="71" height="71" rx="4.5" fill="#F1F1F1" stroke="#E1E1E1"/>
<g opacity="0.4">
<path d="M35.6417 35.7073C38.8746 35.7073 41.4954 33.0865 41.4954 29.8537C41.4954 26.6208 38.8746 24 35.6417 24C32.4089 24 29.7881 26.6208 29.7881 29.8537C29.7881 33.0865 32.4089 35.7073 35.6417 35.7073Z" fill="#999999"/>
<path d="M35.642 38.6343C29.7766 38.6343 25 42.5679 25 47.4148C25 47.7426 25.2576 48.0001 25.5854 48.0001H45.6986C46.0264 48.0001 46.2839 47.7426 46.2839 47.4148C46.2839 42.5679 41.5074 38.6343 35.642 38.6343Z" fill="#999999"/>
</g>
</svg>
